<?xml version="1.0" encoding="UTF-8"?>
<svg id="Layer_2" data-name="Layer 2" xmlns="http://www.w3.org/2000/svg" viewBox="0 0 52.89 100.07">
  <defs>
    <style>
      .cls-1 {
        fill: #fff;
      }
    </style>
  </defs>
  <g id="Layer_1-2" data-name="Layer 1">
    <path class="cls-1" d="M.9,99.23c.53.53,1.25.84,2,.84.75,0,1.48-.3,2-.84l47.16-47.16c1.1-1.09,1.12-2.87.03-3.97,0,0-.02-.02-.03-.03L4.9.9C3.83-.24,2.04-.3.9.76s-1.2,2.86-.13,4c.04.05.09.09.13.13l45.16,45.17L.9,95.23c-1.1,1.1-1.11,2.88-.01,3.99,0,0,0,0,.01.01Z"/>
  </g>
</svg>